<svg width="100" height="100" viewBox="0 0 100 100" fill="none" xmlns="http://www.w3.org/2000/svg">
<path d="M50 100C22.3828 100 0 77.6172 0 50C0 22.3828 22.3828 0 50 0C77.6172 0 100 22.3828 100 50C100 77.6172 77.6172 100 50 100ZM50 9.375C27.5586 9.375 9.375 27.5586 9.375 50C9.375 72.4414 27.5586 90.625 50 90.625C72.4414 90.625 90.625 72.4414 90.625 50C90.625 27.5586 72.4414 9.375 50 9.375ZM63.8086 33.1836C65.332 31.0937 68.2617 30.625 70.3516 32.1484C72.4414 33.6719 72.9102 36.6016 71.3867 38.6914L47.5391 71.5039C46.7383 72.6172 45.4883 73.3203 44.1211 73.418C42.7539 73.5156 41.4062 73.0273 40.4492 72.0703L29.5312 61.1523C27.6953 59.3164 27.6953 56.3477 29.5312 54.5313C31.3672 52.7148 34.3359 52.6953 36.1523 54.5313L43.1836 61.5625L63.8086 33.2031V33.1836Z" fill="#292826"/>
</svg>
