<svg width="62" height="220" viewBox="0 0 62 220" fill="none" xmlns="http://www.w3.org/2000/svg">
<path d="M30.9681 219.996C32.8817 220.059 34.7952 219.369 36.1985 217.957L59.9588 194.457C62.7016 191.759 62.6697 187.398 59.9269 184.7C57.1841 182.002 52.751 182.033 50.0082 184.731L38.2078 196.371L38.2078 6.90233C38.2078 3.07467 35.0823 0 31.1913 0C27.3004 0 24.1749 3.07467 24.1749 6.90233L24.1749 196.842L11.9599 184.826C9.21707 182.127 4.78394 182.127 2.04115 184.826C0.66975 186.175 0 187.932 0 189.72C0 191.477 0.66975 193.265 2.04115 194.614L25.8014 217.988C27.2366 219.369 29.1183 220.027 30.9681 219.996Z" fill="black"/>
</svg>
