<svg width="16" height="16" viewBox="0 0 16 16" fill="none" xmlns="http://www.w3.org/2000/svg">
<path d="M8.00004 1.33325C4.32671 1.33325 1.33337 4.32659 1.33337 7.99992C1.33337 11.6733 4.32671 14.6666 8.00004 14.6666C11.6734 14.6666 14.6667 11.6733 14.6667 7.99992C14.6667 4.32659 11.6734 1.33325 8.00004 1.33325ZM10.9 10.3799C10.8667 10.4367 10.8223 10.4863 10.7696 10.5259C10.7169 10.5654 10.6568 10.5941 10.593 10.6102C10.5291 10.6263 10.4626 10.6296 10.3975 10.6198C10.3323 10.61 10.2697 10.5874 10.2134 10.5533L8.14671 9.31992C7.63337 9.01325 7.25337 8.33992 7.25337 7.74659V5.01325C7.25337 4.73992 7.48004 4.51325 7.75337 4.51325C8.02671 4.51325 8.25337 4.73992 8.25337 5.01325V7.74659C8.25337 7.98659 8.45337 8.33992 8.66004 8.45992L10.7267 9.69325C10.9667 9.83325 11.0467 10.1399 10.9 10.3799Z" fill="#292D32"/>
</svg>
