<svg width="24" height="24" viewBox="0 0 24 24" fill="none" xmlns="http://www.w3.org/2000/svg">
<g clip-path="url(#clip0_25658_6575)">
<rect width="24" height="24" fill="none"/>
<path d="M19.2829 22.994H4.71028C3.88481 22.9951 3.07358 22.7891 2.35808 22.3968C1.64258 22.0044 1.04801 21.4396 0.634092 20.7589C0.220175 20.0782 0.00149046 19.3058 7.5919e-06 18.519C-0.00147528 17.7323 0.214295 16.9591 0.625644 16.277L7.92302 4.23407C8.33353 3.55085 8.92724 2.98392 9.64332 2.59137C10.3594 2.19882 11.1721 1.99476 11.9982 2.0001C12.8243 1.99476 13.637 2.19882 14.353 2.59137C15.0691 2.98392 15.6628 3.55085 16.0733 4.23407L23.3707 16.277C23.7832 16.9586 24.0003 17.7316 24 18.5185C23.9997 19.3053 23.7822 20.0782 23.3692 20.7595C22.9562 21.4408 22.3624 22.0066 21.6473 22.3998C20.9322 22.7931 20.1211 23.0001 19.2956 23L19.2829 22.994ZM11.9982 3.50547C11.4475 3.50335 10.9062 3.64186 10.4306 3.90659C9.9551 4.17132 9.56263 4.55262 9.29404 5.01084L2.00614 17.0538C1.73239 17.5063 1.58835 18.0195 1.58848 18.5418C1.58861 19.0641 1.73291 19.5772 2.00689 20.0296C2.28087 20.482 2.67489 20.8577 3.1494 21.1191C3.62391 21.3805 4.16222 21.5183 4.71028 21.5187H19.2829C19.8313 21.5188 20.37 21.3814 20.8449 21.1202C21.3199 20.8591 21.7143 20.4834 21.9887 20.0309C22.263 19.5785 22.4076 19.0651 22.4079 18.5426C22.4082 18.02 22.2641 17.5065 21.9902 17.0538L14.7023 4.99579C14.4317 4.54037 14.0383 4.1621 13.5629 3.9001C13.0875 3.63809 12.5473 3.50186 11.9982 3.50547Z" fill="#848484"/>
<rect x="6" y="15" width="2" height="2" fill="#848484"/>
<rect x="12" y="7" width="2" height="2" fill="#848484"/>
<rect x="17" y="17" width="2" height="2" fill="#848484"/>
</g>
<defs>
<clipPath id="clip0_25658_6575">
<rect width="24" height="24" />
</clipPath>
</defs>
</svg>
