<svg width="23" height="29" viewBox="0 0 23 29" fill="none" xmlns="http://www.w3.org/2000/svg">
<path d="M21.65 11.95C21.65 14.8642 20.4427 17.4965 18.5009 19.3738C16.6431 21.1699 14.1131 22.275 11.325 22.275C8.53688 22.275 6.00688 21.1699 4.14912 19.3738C2.20734 17.4965 1 14.8642 1 11.95C1 6.24766 5.62266 1.625 11.325 1.625C17.0273 1.625 21.65 6.24766 21.65 11.95Z" fill="white"/>
<path d="M11.325 22.275C8.53688 22.275 6.00688 21.1699 4.14912 19.3738L11.325 27.1794L18.5009 19.3738C16.6431 21.1699 14.1131 22.275 11.325 22.275Z" fill="#8B190C"/>
<path d="M4.14912 19.3738C6.00688 21.1699 8.53688 22.275 11.325 22.275C14.1131 22.275 16.6431 21.1699 18.5009 19.3738M4.14912 19.3738C2.20734 17.4965 1 14.8642 1 11.95C1 6.24766 5.62266 1.625 11.325 1.625C17.0273 1.625 21.65 6.24766 21.65 11.95C21.65 14.8642 20.4427 17.4965 18.5009 19.3738M4.14912 19.3738L11.325 27.1794L18.5009 19.3738" stroke="#8B190C" stroke-width="2"/>
<path fill-rule="evenodd" clip-rule="evenodd" d="M16.2 7.72949H13.4859C13.385 7.72972 13.2884 7.77199 13.2171 7.84706C13.1458 7.92213 13.1057 8.02388 13.1055 8.13005V11.0384C13.1055 11.2063 13.0423 11.3674 12.9296 11.4863C12.8169 11.6052 12.664 11.6721 12.5045 11.6724H6.28042C6.17955 11.6724 6.08281 11.7146 6.01148 11.7897C5.94014 11.8648 5.90006 11.9667 5.90002 12.0729V12.8507V14.1986V15.0587C5.90006 15.1649 5.94014 15.2668 6.01148 15.3419C6.08281 15.417 6.17955 15.4592 6.28042 15.4592H6.33167C6.84371 15.4592 7.25277 15.0546 7.49378 14.6028C7.60774 14.3892 7.75497 14.1948 7.93115 14.0286C8.32336 13.6586 8.83144 13.454 9.35805 13.454C9.88465 13.454 10.3927 13.6586 10.7849 14.0286C10.9611 14.1948 11.1084 14.3892 11.2223 14.6028C11.4633 15.0546 11.8724 15.4592 12.3844 15.4592H13.3602C13.872 15.4592 14.281 15.0548 14.522 14.6033C14.6361 14.3895 14.7834 14.1951 14.9597 14.0289C15.352 13.6589 15.8601 13.4544 16.3867 13.4544C16.9133 13.4544 17.4214 13.6589 17.8137 14.0289C18.1331 14.33 18.3574 14.7236 18.461 15.1569C18.5015 15.3266 18.6452 15.4592 18.8196 15.4592C18.9205 15.4592 19.0172 15.417 19.0886 15.3419C19.1599 15.2668 19.2 15.1649 19.2 15.0587V14.1986V12.8507V10.8885C19.1991 10.051 18.8827 9.24805 18.3203 8.65585C17.7579 8.06364 16.9954 7.7305 16.2 7.72949ZM18.2631 11.4863C18.3759 11.3675 18.4394 11.2065 18.4396 11.0385V10.8885C18.4389 10.2633 18.2028 9.66403 17.783 9.222C17.3632 8.77997 16.794 8.53132 16.2003 8.5306H14.4681C14.3086 8.5308 14.1556 8.59766 14.0428 8.7165C13.93 8.83535 13.8666 8.99646 13.8665 9.16449V11.0385C13.8667 11.2065 13.9301 11.3675 14.0429 11.4862C14.1557 11.605 14.3086 11.6718 14.4681 11.672H17.8378C17.9973 11.6718 18.1503 11.6051 18.2631 11.4863Z" fill="#8B190C"/>
<path d="M18.4396 11.0385C18.4394 11.2065 18.3759 11.3675 18.2631 11.4863C18.1503 11.6051 17.9973 11.6718 17.8378 11.672H14.4681C14.3086 11.6718 14.1557 11.605 14.0429 11.4862C13.9301 11.3675 13.8667 11.2065 13.8665 11.0385V9.16449C13.8666 8.99646 13.93 8.83535 14.0428 8.7165C14.1556 8.59766 14.3086 8.5308 14.4681 8.5306H16.2003C16.794 8.53132 17.3632 8.77997 17.783 9.222C18.2028 9.66403 18.4389 10.2633 18.4396 10.8885V11.0385Z" stroke="#8B190C"/>
<path fill-rule="evenodd" clip-rule="evenodd" d="M16.2 7.72949H13.4859C13.385 7.72972 13.2884 7.77199 13.2171 7.84706C13.1458 7.92213 13.1057 8.02388 13.1055 8.13005V11.0384C13.1055 11.2063 13.0423 11.3674 12.9296 11.4863C12.8169 11.6052 12.664 11.6721 12.5045 11.6724H6.28042C6.17955 11.6724 6.08281 11.7146 6.01148 11.7897C5.94014 11.8648 5.90006 11.9667 5.90002 12.0729V12.8507V14.1986V15.0587C5.90006 15.1649 5.94014 15.2668 6.01148 15.3419C6.08281 15.417 6.17955 15.4592 6.28042 15.4592H6.33167C6.84371 15.4592 7.25277 15.0546 7.49378 14.6028C7.60774 14.3892 7.75497 14.1948 7.93115 14.0286C8.32336 13.6586 8.83144 13.454 9.35805 13.454C9.88465 13.454 10.3927 13.6586 10.7849 14.0286C10.9611 14.1948 11.1084 14.3892 11.2223 14.6028C11.4633 15.0546 11.8724 15.4592 12.3844 15.4592H13.3602C13.872 15.4592 14.281 15.0548 14.522 14.6033C14.6361 14.3895 14.7834 14.1951 14.9597 14.0289C15.352 13.6589 15.8601 13.4544 16.3867 13.4544C16.9133 13.4544 17.4214 13.6589 17.8137 14.0289C18.1331 14.33 18.3574 14.7236 18.461 15.1569C18.5015 15.3266 18.6452 15.4592 18.8196 15.4592C18.9205 15.4592 19.0172 15.417 19.0886 15.3419C19.1599 15.2668 19.2 15.1649 19.2 15.0587V14.1986V12.8507V10.8885C19.1991 10.051 18.8827 9.24805 18.3203 8.65585C17.7579 8.06364 16.9954 7.7305 16.2 7.72949ZM18.2631 11.4863C18.3759 11.3675 18.4394 11.2065 18.4396 11.0385V10.8885C18.4389 10.2633 18.2028 9.66403 17.783 9.222C17.3632 8.77997 16.794 8.53132 16.2003 8.5306H14.4681C14.3086 8.5308 14.1556 8.59766 14.0428 8.7165C13.93 8.83535 13.8666 8.99646 13.8665 9.16449V11.0385C13.8667 11.2065 13.9301 11.3675 14.0429 11.4862C14.1557 11.605 14.3086 11.6718 14.4681 11.672H17.8378C17.9973 11.6718 18.1503 11.6051 18.2631 11.4863Z" stroke="#8B190C"/>
<rect width="6.53272" height="3.0887" rx="1" transform="matrix(0.819022 -0.573761 0.573391 0.819282 4.07825 8.58008)" fill="#8B190C" stroke="#8B190C"/>
</svg>
