<svg width="24" height="29" viewBox="0 0 24 29" fill="none" xmlns="http://www.w3.org/2000/svg">
<path d="M23 12C23 15.4314 21.4288 18.4958 18.9667 20.5131C17.0697 22.0673 14.6437 23 12 23C9.35625 23 6.93034 22.0673 5.03333 20.5131C2.57117 18.4958 1 15.4314 1 12C1 5.92487 5.92487 1 12 1C18.0751 1 23 5.92487 23 12Z" fill="white"/>
<path d="M12 23C9.35625 23 6.93034 22.0673 5.03333 20.5131L12 27.2167L18.9667 20.5131C17.0697 22.0673 14.6437 23 12 23Z" fill="#F7C445"/>
<path d="M5.03333 20.5131C6.93034 22.0673 9.35625 23 12 23C14.6437 23 17.0697 22.0673 18.9667 20.5131M5.03333 20.5131C2.57117 18.4958 1 15.4314 1 12C1 5.92487 5.92487 1 12 1C18.0751 1 23 5.92487 23 12C23 15.4314 21.4288 18.4958 18.9667 20.5131M5.03333 20.5131L12 27.2167L18.9667 20.5131" stroke="#F7C445" stroke-width="2"/>
<path d="M17.9312 16.6538C19.6741 16.1929 20.1099 14.9256 19.0244 13.1974C18.3067 12.0546 17.4592 10.8509 14.7901 7.18389C13.5629 5.49779 13.1121 4.80762 11.7977 4.80762C10.4833 4.80762 9.97265 5.76458 8.93959 7.18389C7.02719 9.81131 5.83825 11.6438 4.85895 13.1974C3.69697 15.0408 4.85877 16.0777 6.31142 16.6538H17.9312Z" fill="#F7C445"/>
<rect x="12" y="7.34619" width="0.846154" height="0.846154" fill="white"/>
<rect x="14.5385" y="14.1152" width="0.846153" height="0.846154" fill="white"/>
<rect x="8.61536" y="10.7305" width="0.846154" height="0.846154" fill="white"/>
</svg>
