<?xml version="1.0" encoding="UTF-8"?>
<svg id="Layer_1" data-name="Layer 1" xmlns="http://www.w3.org/2000/svg" width="429.58" height="512" viewBox="0 0 429.58 512">
  <path d="M411.68,214.79c0,61.42-28.12,116.27-72.19,152.38-33.95,27.82-77.38,44.51-124.7,44.51s-90.74-16.69-124.7-44.51c-44.07-36.11-72.19-90.96-72.19-152.38C17.9,106.05,106.05,17.9,214.79,17.9s196.89,88.15,196.89,196.89Z" style="fill: #fff;"/>
  <path d="M214.79,411.69c-47.32,0-90.74-16.69-124.7-44.51l124.7,119.99,124.7-119.99c-33.95,27.82-77.38,44.51-124.7,44.51Z" style="fill: #8c1d1c;"/>
  <path d="M214.79,512l-136.6-131.45C28.49,339.57,0,279.19,0,214.79,0,96.36,96.36,0,214.79,0s214.79,96.36,214.79,214.79c0,64.4-28.49,124.77-78.2,165.76l-136.6,131.45ZM177.33,426.28l37.46,36.04,37.46-36.04c-24.63,4.37-50.31,4.37-74.92,0ZM101.44,353.33c31.84,26.09,72.1,40.46,113.36,40.46s81.51-14.37,113.35-40.46l11.34,13.84-11.34-13.84c41.72-34.17,65.65-84.67,65.65-138.54,0-98.7-80.29-178.99-178.99-178.99S35.8,116.09,35.8,214.79c0,53.87,23.92,104.36,65.64,138.54l-11.34,13.84,11.34-13.84Z" style="fill: #8b1c1b;"/>
  <path d="M320.95,298.09c31.2-8.25,39-30.93,19.57-61.87-12.85-20.46-28.02-42-75.79-107.64-21.97-30.18-30.04-42.53-53.56-42.53s-32.67,17.13-51.16,42.53c-34.23,47.03-55.51,79.83-73.04,107.64-20.8,33,0,51.56,26,61.87h207.98Z" style="fill: #8b1c1b;"/>
  <rect x="214.79" y="131.49" width="15.15" height="15.15" style="fill: #fff;"/>
  <rect x="260.23" y="252.66" width="15.15" height="15.15" style="fill: #fff;"/>
  <rect x="154.21" y="192.08" width="15.15" height="15.15" style="fill: #fff;"/>
</svg>