<?xml version="1.0" encoding="UTF-8"?>
<svg id="Layer_1" data-name="Layer 1" xmlns="http://www.w3.org/2000/svg" width="429.58" height="512" viewBox="0 0 429.58 512">
  <path d="M400.46,207.61c0,52.4-21.71,99.74-56.63,133.5-33.41,32.3-78.9,52.17-129.04,52.17s-95.63-19.87-129.04-52.17c-34.92-33.76-56.63-81.09-56.63-133.5C29.12,105.07,112.25,21.94,214.79,21.94s185.67,83.13,185.67,185.67Z" style="fill: #fff;"/>
  <path d="M214.79,393.28c-50.14,0-95.63-19.87-129.04-52.17l129.04,140.36,129.04-140.36c-33.41,32.3-78.9,52.17-129.04,52.17Z" style="fill: #f6c343;"/>
  <path d="M214.79,508.04l-141.93-154.37c-39.81-38.7-61.73-90.54-61.73-146.05C11.14,95.32,102.5,3.96,214.79,3.96s203.65,91.36,203.65,203.65c0,55.52-21.92,107.36-61.73,146.05l-141.93,154.37ZM170.18,406.37l44.61,48.53,44.61-48.53c-28.99,6.46-60.23,6.46-89.23,0ZM98.25,328.18c31.43,30.38,72.82,47.12,116.54,47.12s85.11-16.74,116.54-47.12c32.98-31.88,51.15-74.7,51.15-120.56,0-92.47-75.22-167.69-167.69-167.69S47.1,115.15,47.1,207.62c0,45.86,18.17,88.68,51.15,120.56h0Z" style="fill: #f6c343;"/>
  <path d="M302.46,131.72h-48.81c-1.81,0-3.55.76-4.83,2.11-1.28,1.35-2,3.18-2.01,5.09v52.3c0,3.02-1.14,5.92-3.16,8.06-2.03,2.14-4.78,3.34-7.64,3.34h-111.92c-1.81,0-3.55.76-4.84,2.11-1.28,1.35-2,3.18-2,5.09v53.69c0,1.91.72,3.74,2,5.09,1.28,1.35,3.02,2.11,4.84,2.11h.92c9.21,0,16.56-7.28,20.9-15.4,2.05-3.84,4.7-7.34,7.86-10.32,7.05-6.66,16.19-10.33,25.66-10.33s18.61,3.68,25.66,10.33c3.17,2.99,5.82,6.48,7.87,10.32,4.33,8.12,11.69,15.4,20.9,15.4h17.55c9.2,0,16.56-7.27,20.89-15.39,2.05-3.84,4.7-7.34,7.87-10.33,7.05-6.65,16.19-10.33,25.66-10.33s18.61,3.68,25.66,10.33c5.74,5.42,9.78,12.49,11.64,20.29.73,3.05,3.31,5.44,6.45,5.44,1.81,0,3.55-.76,4.84-2.11,1.28-1.35,2-3.18,2-5.09v-74.99c-.02-15.06-5.71-29.5-15.82-40.15-10.11-10.65-23.82-16.64-38.13-16.66ZM339.55,199.28c2.03-2.13,3.17-5.03,3.17-8.05v-2.7c-.01-11.24-4.26-22.02-11.81-29.97-7.55-7.95-17.78-12.42-28.46-12.43h-31.15c-2.87,0-5.62,1.21-7.65,3.34-2.03,2.14-3.17,5.03-3.17,8.06v33.7c0,3.02,1.14,5.92,3.17,8.05s4.78,3.34,7.65,3.34h60.6c2.87,0,5.62-1.2,7.65-3.34Z" style="fill: #f6c343; fill-rule: evenodd;"/>
  <path d="M331.93,211.61h-60.62c-5.33-.02-10.49-2.26-14.18-6.16-3.63-3.82-5.63-8.88-5.63-14.23v-33.7c0-5.36,2-10.41,5.65-14.25,3.7-3.88,8.84-6.12,14.14-6.14h31.18c13.25.02,25.67,5.44,34.97,15.23,9.19,9.67,14.27,22.5,14.29,36.14v2.74c-.02,5.35-2.02,10.4-5.65,14.22-3.67,3.88-8.83,6.12-14.14,6.14ZM271.31,155.12c-1.57,1.01-1.83,1.69-1.83,2.41v33.7c0,.71.25,1.4.69,1.85l61.73.55c1.58-1.02,1.84-1.7,1.84-2.43v-2.67c-.02-8.88-3.42-17.54-9.33-23.78-5.89-6.2-13.69-9.61-21.96-9.63h-31.14Z" style="fill: #8b1c1b;"/>
  <path d="M349.56,279.71c-7.23,0-13.48-5.08-15.2-12.36-1.47-6.14-4.6-11.61-9.05-15.8-10.8-10.17-28.22-10.17-38.99,0-2.45,2.3-4.5,5-6.12,8.03-6.72,12.61-17.5,20.14-28.82,20.14h-17.54c-11.33,0-22.1-7.53-28.83-20.16-1.62-3.02-3.67-5.72-6.1-8.03-10.76-10.15-28.19-10.16-38.99,0-2.43,2.31-4.49,5-6.08,8.02-6.74,12.63-17.53,20.16-28.83,20.16-5.16,0-9.3-1.78-12.27-4.89-2.9-3.06-4.49-7.07-4.49-11.3v-53.69c0-4.23,1.59-8.24,4.47-11.28,2.96-3.12,7.1-4.91,11.36-4.91h111.92c1.55-1,1.81-1.69,1.81-2.41v-52.3c.02-4.27,1.61-8.25,4.48-11.28,2.99-3.13,7.12-4.91,11.36-4.91h48.81c16.66.02,32.93,7.11,44.64,19.46,11.77,12.4,18.27,28.85,18.29,46.33v75c0,4.23-1.59,8.24-4.47,11.28-2.99,3.13-7.12,4.91-11.36,4.91ZM351.85,263.18s0,0,0,0c0,0,0,0,0,0ZM179.42,225.67c11.79,0,23.09,4.54,31.83,12.78,3.85,3.64,7.09,7.88,9.62,12.63,2.75,5.15,7.6,10.65,12.97,10.65h17.54c5.37,0,10.21-5.49,12.95-10.63,2.55-4.75,5.79-9,9.65-12.64,17.46-16.47,46.18-16.49,63.65,0,4.02,3.78,7.35,8.2,9.89,13.1l-.11-47.65c-.42.54-.87,1.06-1.34,1.56-3.69,3.88-8.83,6.12-14.14,6.14h-60.62c-5.33-.02-10.49-2.26-14.18-6.16-1.41-1.49-2.58-3.17-3.48-4.98-.9,1.81-2.06,3.49-3.48,4.99-3.71,3.9-8.86,6.14-14.15,6.16h-110.24l.44,49.89c5.25-1.06,9.31-5.88,11.74-10.42,2.51-4.72,5.74-8.96,9.61-12.62,8.75-8.26,20.06-12.8,31.85-12.8ZM302.45,155.12h-31.14c-1.57,1.01-1.83,1.69-1.83,2.41v33.7c0,.71.25,1.4.69,1.85l61.73.55,1.13-.55c.45-.47.7-1.15.7-1.88v-2.67c-.02-8.88-3.42-17.54-9.33-23.78-5.89-6.2-13.69-9.61-21.96-9.63ZM255.33,140.72l.04,4.71c.54-.76,1.12-1.47,1.77-2.15.9-.95,1.91-1.81,2.97-2.56h-4.79Z" style="fill: #f6c343;"/>
  <g>
    <rect x="89.77" y="108.3" width="117.47" height="55.54" rx="1" ry="1" transform="translate(-51.2 109.83) rotate(-35.01)" style="fill: #f6c343;"/>
    <path d="M120.8,194.45c-1.57,0-3.15-.13-4.73-.41-7.09-1.25-13.28-5.18-17.42-11.08l-11.22-16.05c-8.53-12.18-5.56-29.03,6.62-37.57l66.76-46.76c5.91-4.13,13.04-5.73,20.16-4.47,7.09,1.26,13.28,5.19,17.41,11.1l11.22,16.03c8.53,12.18,5.56,29.03-6.62,37.57l-66.76,46.76c-4.59,3.21-9.93,4.88-15.42,4.88ZM104.37,144.07h0c-4.07,2.84-5.06,8.46-2.21,12.53l11.22,16.04c1.38,1.96,3.43,3.28,5.8,3.69,2.39.43,4.75-.12,6.71-1.49l66.76-46.76c4.07-2.84,5.06-8.46,2.21-12.53l-11.22-16.03c-1.38-1.97-3.44-3.28-5.8-3.7-2.36-.46-4.74.11-6.71,1.49l-66.76,46.76Z" style="fill: #f6c343;"/>
  </g>
</svg>