<svg width="22" height="22" viewBox="0 0 22 22" fill="none" xmlns="http://www.w3.org/2000/svg">
<g clip-path="url(#clip0_25937_10213)">
<path d="M8.33254 8.25016C8.54805 7.63753 8.97343 7.12093 9.53333 6.79187C10.0932 6.46281 10.7515 6.34252 11.3916 6.45232C12.0317 6.56211 12.6123 6.89489 13.0305 7.39173C13.4488 7.88857 13.6777 8.51739 13.6767 9.16683C13.6767 11.0002 10.9267 11.9168 10.9267 11.9168M11 15.5835L11.0092 15.5835M20.1667 11.0002C20.1667 16.0628 16.0627 20.1668 11 20.1668C5.93743 20.1668 1.83337 16.0628 1.83337 11.0002C1.83337 5.93755 5.93743 1.8335 11 1.8335C16.0627 1.8335 20.1667 5.93755 20.1667 11.0002Z" stroke="black" stroke-width="2" stroke-linecap="round" stroke-linejoin="round"/>
</g>
<defs>
<clipPath id="clip0_25937_10213">
<rect width="22" height="22" fill="white"/>
</clipPath>
</defs>
</svg>
