<svg width="16" height="16" viewBox="0 0 16 16" fill="none" xmlns="http://www.w3.org/2000/svg">
<path d="M13.7473 5.63341C13.0473 2.55341 10.3607 1.16675 8.00067 1.16675H7.99401C5.64067 1.16675 2.94734 2.54675 2.24734 5.62675C1.46734 9.06675 3.57401 11.9801 5.48067 13.8134C6.15649 14.4675 7.06014 14.8333 8.00067 14.8334C8.90734 14.8334 9.81401 14.4934 10.514 13.8134C12.4207 11.9801 14.5273 9.07341 13.7473 5.63341ZM8.00067 8.97341C7.7249 8.97341 7.45182 8.9191 7.19704 8.81356C6.94226 8.70803 6.71075 8.55334 6.51575 8.35834C6.32075 8.16334 6.16606 7.93183 6.06053 7.67705C5.95499 7.42227 5.90067 7.14919 5.90067 6.87341C5.90067 6.59764 5.95499 6.32456 6.06053 6.06978C6.16606 5.815 6.32075 5.58349 6.51575 5.38849C6.71075 5.19349 6.94226 5.0388 7.19704 4.93327C7.45182 4.82773 7.7249 4.77341 8.00067 4.77341C8.55763 4.77341 9.09177 4.99466 9.4856 5.38849C9.87942 5.78232 10.1007 6.31646 10.1007 6.87341C10.1007 7.43037 9.87942 7.96451 9.4856 8.35834C9.09177 8.75216 8.55763 8.97341 8.00067 8.97341Z" fill="#292D32"/>
</svg>
