<svg width="80" height="80" viewBox="0 0 80 80" fill="none" xmlns="http://www.w3.org/2000/svg">
<g clip-path="url(#clip0_25464_32283)">
<path d="M69.7732 0H10.2268C4.5787 0 0 4.5787 0 10.2268V69.7732C0 75.4213 4.5787 80 10.2268 80H69.7732C75.4213 80 80 75.4213 80 69.7732V10.2268C80 4.5787 75.4213 0 69.7732 0Z" fill="#EBC517"/>
<path d="M12.2062 65.1721V15.4993C12.2062 12.5842 14.5694 10.2268 17.4845 10.2268H41.0464C51.3672 10.2268 58.3121 15.7412 63.5208 23.0636C70.482 32.8498 69.7023 49.0083 63.5208 59.0426C59.8126 65.0619 50.9814 70.433 41.0464 70.433H17.4845C14.5694 70.433 12.2062 68.0873 12.2062 65.1721Z" fill="#1D1C1B"/>
<path d="M23.9175 56.7422V23.2576C23.9175 23.0754 24.0651 22.9277 24.2474 22.9277H48.2462C48.3414 22.9277 48.432 22.9688 48.4945 23.0404L56.0008 31.6212C56.0534 31.6812 56.0824 31.7584 56.0824 31.8384V49.2688C56.0824 49.3566 56.0476 49.4406 55.9854 49.5024L48.4925 56.9757C48.4306 57.0374 48.3468 57.0721 48.2596 57.0721H24.2474C24.0651 57.0721 23.9175 56.9244 23.9175 56.7422Z" fill="#EBC517"/>
<path d="M36.4597 33.7834H43.7714L47.4271 40.1157L43.7714 46.4477H36.4597L32.804 40.1157L36.4597 33.7834Z" fill="#1D1C1B"/>
<path d="M56.0824 38.9277H37.9381V41.0721H56.0824V38.9277Z" fill="#1D1C1B"/>
</g>
<defs>
<clipPath id="clip0_25464_32283">
<rect width="80" height="80" fill="white"/>
</clipPath>
</defs>
</svg>
