<svg width="108" height="152" viewBox="0 0 108 152" fill="none" xmlns="http://www.w3.org/2000/svg">
<path d="M55.1667 102.263C55.1667 103.368 56.0621 104.263 57.1667 104.263H101.167C102.271 104.263 103.167 103.368 103.167 102.263V69.1109C103.167 68.0064 102.271 67.1109 101.167 67.1109H57.1667C56.0621 67.1109 55.1667 68.0064 55.1667 69.1109V102.263ZM54.3679 117.763C53.3086 119.476 50.6667 118.726 50.6667 116.711V68.75C50.6667 66.8021 51.2736 65.1693 52.4875 63.8516C53.7014 62.5339 55.2056 61.875 57 61.875H101.333C103.128 61.875 104.632 62.5339 105.846 63.8516C107.06 65.1693 107.667 66.8021 107.667 68.75V103.125C107.667 105.073 107.06 106.706 105.846 108.023C104.632 109.341 103.128 110 101.333 110H60.2816C59.5885 110 58.9448 110.359 58.5804 110.948L54.3679 117.763ZM12.6667 151.25C9.18333 151.25 6.20139 149.904 3.72083 147.211C1.24028 144.518 0 141.281 0 137.5V13.75C0 9.96875 1.24028 6.73177 3.72083 4.03906C6.20139 1.34635 9.18333 0 12.6667 0H76C79.4833 0 82.4653 1.34635 84.9458 4.03906C87.4264 6.73177 88.6667 9.96875 88.6667 13.75V46.125C88.6667 47.2296 87.7712 48.125 86.6667 48.125H82.1667C81.0621 48.125 80.1667 47.2296 80.1667 46.125V12.6084C80.1667 11.5039 79.2712 10.6085 78.1667 10.6085H59.564C57.6525 10.6085 57.9122 13.833 56.5898 15.2132C56.3402 15.4737 55.8885 15.6657 55.1667 15.7533H45.1667H35.1667C34.1807 15.6554 33.5482 15.4272 33.1742 15.1186C31.7325 13.9292 31.5255 10.6085 29.6566 10.6085H10.6667C9.56209 10.6085 8.66666 11.5039 8.66666 12.6085V139.188C8.66666 140.292 9.56209 141.188 10.6667 141.188H78.1667C79.2712 141.188 80.1667 140.292 80.1667 139.188V125.75C80.1667 124.645 81.0621 123.75 82.1667 123.75H86.6667C87.7712 123.75 88.6667 124.645 88.6667 125.75V137.5C88.6667 141.281 87.4264 144.518 84.9458 147.211C82.4653 149.904 79.4833 151.25 76 151.25H12.6667Z" fill="#292826"/>
</svg>
