<svg width="16" height="16" viewBox="0 0 16 16" fill="none" xmlns="http://www.w3.org/2000/svg">
<g clip-path="url(#clip0_25351_33629)">
<rect width="16" height="16" fill="white"/>
<path fill-rule="evenodd" clip-rule="evenodd" d="M15.8835 4.3285L4.3285 15.8835C4.17311 16.0388 3.9206 16.0388 3.76521 15.8835L0.116543 12.2348C-0.0388477 12.0794 -0.0388477 11.8269 0.116543 11.6715L11.6715 0.116543C11.8269 -0.0388477 12.0794 -0.0388477 12.2348 0.116543L15.8835 3.76521C16.0388 3.9206 16.0388 4.17311 15.8835 4.3285ZM11.649 7.43632L15.0385 4.04679L11.9531 0.961353L0.962117 11.9523L4.04756 15.0377L5.00455 14.0808L3.91831 12.9945C3.76292 12.8391 3.76292 12.5866 3.91831 12.4312C4.0737 12.2758 4.32621 12.2758 4.4816 12.4312L5.56784 13.5175L6.52484 12.5605L5.74266 11.7783C5.58727 11.6229 5.58727 11.3704 5.74266 11.215C5.89806 11.0596 6.15056 11.0596 6.30595 11.215L7.08813 11.9972L8.04513 11.0402L6.95888 9.95394C6.80349 9.79855 6.80349 9.54604 6.95888 9.39065C7.11427 9.23526 7.36678 9.23526 7.52217 9.39065L8.60841 10.4769L9.56541 9.51989L8.78324 8.73772C8.62785 8.58233 8.62785 8.32982 8.78324 8.17443C8.93863 8.01904 9.19113 8.01904 9.34653 8.17443L10.1287 8.9566L11.0857 7.99961L9.99945 6.91336C9.84406 6.75797 9.84406 6.50547 9.99945 6.35008C10.1548 6.19468 10.4074 6.19468 10.5627 6.35008L11.649 7.43632ZM10.7592 2.85301C11.3345 2.27777 12.2683 2.27777 12.8429 2.85301C13.4181 3.42825 13.4181 4.36209 12.8429 4.93668C12.2677 5.51192 11.3338 5.51192 10.7592 4.93668C10.184 4.36144 10.184 3.4276 10.7592 2.85301ZM11.3225 3.4163C11.0588 3.68001 11.0581 4.10883 11.3225 4.37329C11.5862 4.63701 12.0151 4.63701 12.2795 4.37329C12.5432 4.10958 12.5432 3.68076 12.2795 3.4163C12.0151 3.15184 11.587 3.15258 11.3225 3.4163Z" fill="black"/>
</g>
<defs>
<clipPath id="clip0_25351_33629">
<rect width="16" height="16" fill="white"/>
</clipPath>
</defs>
</svg>
