<svg width="22" height="22" viewBox="0 0 22 22" fill="none" xmlns="http://www.w3.org/2000/svg">
<g clip-path="url(#clip0_25937_8896)">
<path d="M11 13.7498C12.5187 13.7498 13.75 12.5186 13.75 10.9998C13.75 9.48105 12.5187 8.24984 11 8.24984C9.48118 8.24984 8.24996 9.48105 8.24996 10.9998C8.24996 12.5186 9.48118 13.7498 11 13.7498Z" stroke="#0A0A0A" stroke-width="2" stroke-linecap="round" stroke-linejoin="round"/>
<path d="M17.7833 13.7498C17.6613 14.0263 17.6249 14.333 17.6788 14.6304C17.7327 14.9277 17.8745 15.2021 18.0858 15.4182L18.1408 15.4732C18.3112 15.6434 18.4465 15.8456 18.5387 16.0682C18.631 16.2908 18.6785 16.5293 18.6785 16.7703C18.6785 17.0112 18.631 17.2497 18.5387 17.4723C18.4465 17.6949 18.3112 17.8971 18.1408 18.0673C17.9705 18.2378 17.7683 18.373 17.5458 18.4653C17.3232 18.5575 17.0846 18.605 16.8437 18.605C16.6028 18.605 16.3642 18.5575 16.1417 18.4653C15.9191 18.373 15.7169 18.2378 15.5466 18.0673L15.4916 18.0123C15.2756 17.801 15.0012 17.6592 14.7038 17.6053C14.4065 17.5514 14.0998 17.5878 13.8233 17.7098C13.5522 17.826 13.3209 18.019 13.1581 18.2649C12.9952 18.5108 12.9078 18.799 12.9066 19.094L12.9066 19.2498C12.9066 19.7361 12.7135 20.2024 12.3697 20.5462C12.0258 20.89 11.5595 21.0832 11.0733 21.0832C10.5871 21.0832 10.1207 20.89 9.77693 20.5462C9.43311 20.2024 9.23996 19.7361 9.23996 19.2498L9.23996 19.1673C9.23286 18.8639 9.13465 18.5697 8.95809 18.3228C8.78154 18.076 8.5348 17.8879 8.24996 17.7832C7.97348 17.6611 7.66678 17.6247 7.36942 17.6787C7.07206 17.7326 6.79766 17.8743 6.58163 18.0857L6.52663 18.1407C6.35636 18.3111 6.15416 18.4464 5.9316 18.5386C5.70904 18.6309 5.47047 18.6784 5.22954 18.6784C4.98861 18.6784 4.75005 18.6309 4.52749 18.5386C4.30492 18.4464 4.10273 18.3111 3.93246 18.1407C3.762 17.9704 3.62678 17.7682 3.53452 17.5456C3.44226 17.3231 3.39477 17.0845 3.39477 16.8436C3.39477 16.6027 3.44226 16.3641 3.53452 16.1415C3.62678 15.919 3.762 15.7168 3.93246 15.5465L3.98746 15.4915C4.19878 15.2755 4.34055 15.0011 4.39446 14.7037C4.44838 14.4063 4.41198 14.0997 4.28996 13.8232C4.17376 13.552 3.98082 13.3208 3.73489 13.158C3.48895 12.9951 3.20076 12.9077 2.90579 12.9065L2.74996 12.9065C2.26373 12.9065 1.79741 12.7133 1.4536 12.3695C1.10978 12.0257 0.916626 11.5594 0.916626 11.0732C0.916626 10.5869 1.10978 10.1206 1.4536 9.77681C1.79741 9.43299 2.26373 9.23984 2.74996 9.23984L2.83246 9.23984C3.13587 9.23274 3.43013 9.13453 3.67698 8.95797C3.92384 8.78141 4.11187 8.53468 4.21663 8.24984C4.33865 7.97336 4.37505 7.66666 4.32113 7.3693C4.26721 7.07194 4.12545 6.79754 3.91413 6.5815L3.85913 6.5265C3.68867 6.35624 3.55344 6.15404 3.46118 5.93148C3.36892 5.70891 3.32143 5.47035 3.32143 5.22942C3.32143 4.98849 3.36892 4.74993 3.46118 4.52736C3.55344 4.3048 3.68867 4.1026 3.85913 3.93234C4.02939 3.76188 4.23159 3.62666 4.45415 3.53439C4.67672 3.44213 4.91528 3.39464 5.15621 3.39464C5.39714 3.39464 5.6357 3.44213 5.85827 3.53439C6.08083 3.62666 6.28303 3.76188 6.45329 3.93234L6.50829 3.98734C6.72433 4.19866 6.99872 4.34042 7.29609 4.39434C7.59345 4.44826 7.90014 4.41186 8.17663 4.28984L8.24996 4.28984C8.52108 4.17364 8.75231 3.9807 8.91518 3.73476C9.07805 3.48883 9.16545 3.20064 9.16663 2.90567L9.16663 2.74984C9.16663 2.26361 9.35978 1.79729 9.7036 1.45347C10.0474 1.10966 10.5137 0.916504 11 0.916504C11.4862 0.916504 11.9525 1.10966 12.2963 1.45347C12.6401 1.79729 12.8333 2.26361 12.8333 2.74984L12.8333 2.83234C12.8345 3.12731 12.9219 3.4155 13.0847 3.66143C13.2476 3.90736 13.4788 4.1003 13.75 4.2165C14.0264 4.33853 14.3331 4.37493 14.6305 4.32101C14.9279 4.26709 15.2023 4.12533 15.4183 3.914L15.4733 3.859C15.6436 3.68855 15.8458 3.55332 16.0683 3.46106C16.2909 3.3688 16.5294 3.32131 16.7704 3.32131C17.0113 3.32131 17.2499 3.3688 17.4724 3.46106C17.695 3.55332 17.8972 3.68855 18.0675 3.859C18.2379 4.02927 18.3731 4.23147 18.4654 4.45403C18.5577 4.67659 18.6052 4.91516 18.6052 5.15609C18.6052 5.39702 18.5577 5.63558 18.4654 5.85814C18.3731 6.08071 18.2379 6.2829 18.0675 6.45317L18.0125 6.50817C17.8011 6.72421 17.6594 6.9986 17.6055 7.29596C17.5515 7.59333 17.5879 7.90002 17.71 8.1765L17.71 8.24984C17.8262 8.52096 18.0191 8.75219 18.265 8.91506C18.511 9.07792 18.7992 9.16533 19.0941 9.1665L19.25 9.1665C19.7362 9.1665 20.2025 9.35966 20.5463 9.70347C20.8901 10.0473 21.0833 10.5136 21.0833 10.9998C21.0833 11.4861 20.8901 11.9524 20.5463 12.2962C20.2025 12.64 19.7362 12.8332 19.25 12.8332L19.1675 12.8332C18.8725 12.8343 18.5843 12.9217 18.3384 13.0846C18.0924 13.2475 17.8995 13.4787 17.7833 13.7498Z" stroke="#0A0A0A" stroke-width="2" stroke-linecap="round" stroke-linejoin="round"/>
</g>
<defs>
<clipPath id="clip0_25937_8896">
<rect width="22" height="22" fill="white"/>
</clipPath>
</defs>
</svg>
