<svg width="16" height="16" viewBox="0 0 16 16" fill="none" xmlns="http://www.w3.org/2000/svg">
<path d="M1.59801 3.83839C0.778576 4.09218 0.368859 2.74919 0.235701 2.24161C0.102543 1.72345 0.676147 0.782294 1.06538 0.517926C2.57109 -0.486673 4.94745 0.655397 5.12158 1.16298C5.28547 1.67057 3.48271 3.25678 1.59801 3.83839Z" fill="black"/>
<path d="M2.59321 7.96244C1.62013 8.77669 0.247574 8.20566 0.175873 7.87784C0.124658 7.6452 -0.192873 6.52427 0.175873 5.85807C0.544619 5.20243 2.81855 4.95922 2.78782 5.7206C2.75709 6.48198 3.36143 6.58772 3.41264 6.92611C3.45361 7.27508 2.84928 7.76152 2.59321 7.96244Z" fill="black"/>
<path d="M9.52693 2.98207C8.09292 3.0561 7.1813 1.46989 7.33494 1.0892C7.40665 0.909426 7.98025 0.719081 8.54361 0.475862C9.19916 0.20092 9.84446 -0.549885 10.8483 0.697932C11.258 1.20552 11.0736 1.82943 10.8995 2.21012C10.7151 2.58023 9.89568 2.96092 9.52693 2.98207Z" fill="black"/>
<path d="M15.9999 3.87077V14.7099C15.9999 15.4289 15.4365 16 14.7503 16H1.43445C0.737933 16 0.184814 15.4184 0.184814 14.7099V12.7218C0.184814 12.7218 0.461374 10.4905 2.32559 9.634C3.80057 8.94664 4.27175 7.4979 5.6443 6.46158C6.17693 6.05974 6.75054 5.66847 7.36511 5.30893C8.13333 4.85422 9.76196 5.50985 10.6633 5.16089C11.9232 4.67445 12.3842 2.59123 13.9103 2.42203C14.3201 2.37973 14.8015 2.61238 15.2727 2.79215C15.7029 2.96134 15.9999 3.38433 15.9999 3.87077Z" fill="black"/>
</svg>
