<svg width="22" height="22" viewBox="0 0 22 22" fill="none" xmlns="http://www.w3.org/2000/svg">
<path d="M2.75 5.50016L4.58333 5.50016M4.58333 5.50016L19.25 5.50016M4.58333 5.50016L4.58333 18.3335C4.58333 18.8197 4.77649 19.286 5.1203 19.6299C5.46412 19.9737 5.93044 20.1668 6.41667 20.1668L15.5833 20.1668C16.0696 20.1668 16.5359 19.9737 16.8797 19.6299C17.2235 19.286 17.4167 18.8197 17.4167 18.3335L17.4167 5.50016L4.58333 5.50016ZM7.33333 5.50016L7.33333 3.66683C7.33333 3.1806 7.52649 2.71428 7.8703 2.37047C8.21412 2.02665 8.68044 1.8335 9.16667 1.8335L12.8333 1.8335C13.3196 1.8335 13.7859 2.02665 14.1297 2.37047C14.4735 2.71428 14.6667 3.1806 14.6667 3.66683L14.6667 5.50016M9.16667 10.0835L9.16667 15.5835M12.8333 10.0835L12.8333 15.5835" stroke="#F10021" stroke-width="2" stroke-linecap="round" stroke-linejoin="round"/>
</svg>
