<svg width="16" height="16" viewBox="0 0 16 16" fill="none" xmlns="http://www.w3.org/2000/svg">
<path d="M10.6666 10.6667V2H0.666626V10.6667H10.6666ZM10.6666 10.6667H15.3333V7.33333L13.3333 5.33333H10.6666V10.6667ZM5.33329 12.3333C5.33329 13.2538 4.5871 14 3.66663 14C2.74615 14 1.99996 13.2538 1.99996 12.3333C1.99996 11.4129 2.74615 10.6667 3.66663 10.6667C4.5871 10.6667 5.33329 11.4129 5.33329 12.3333ZM14 12.3333C14 13.2538 13.2538 14 12.3333 14C11.4128 14 10.6666 13.2538 10.6666 12.3333C10.6666 11.4129 11.4128 10.6667 12.3333 10.6667C13.2538 10.6667 14 11.4129 14 12.3333Z" stroke="#0A0A0A" stroke-linecap="round" stroke-linejoin="round"/>
</svg>
