<svg width="24" height="24" viewBox="0 0 24 24" fill="none" xmlns="http://www.w3.org/2000/svg">
<g clip-path="url(#clip0_25665_6585)">
<path d="M23.0946 12.1911H22.4735L21.3462 9.16388C21.2814 8.99567 21.1646 8.85081 21.0117 8.74892C20.8588 8.64704 20.6772 8.59306 20.4916 8.5943H17.3786L16.7302 5.04023C16.7154 4.95926 16.6835 4.88208 16.6367 4.81345C16.5898 4.74482 16.5289 4.6862 16.4577 4.64119C16.3865 4.59618 16.3065 4.56574 16.2227 4.55175C16.1389 4.53776 16.053 4.54051 15.9703 4.55983L14.9756 4.79293C14.8505 4.82228 14.7379 4.88832 14.6532 4.98198C14.5685 5.07565 14.5159 5.19235 14.5025 5.31609L14.4128 6.16194L4.44893 8.88395C4.37079 8.90558 4.29787 8.94198 4.23441 8.99106C4.17093 9.04013 4.11817 9.1009 4.07918 9.16983C4.03766 9.22315 4.01026 9.28547 3.99935 9.35137L3.61688 12.0539C3.60923 12.108 3.61266 12.1629 3.62698 12.2157C3.6413 12.2684 3.66622 12.3179 3.70034 12.3614C3.76923 12.4491 3.87136 12.5068 3.98425 12.5217C4.09714 12.5367 4.21155 12.5077 4.30231 12.4411C4.39307 12.3745 4.45274 12.2757 4.4682 12.1666L4.67181 10.728L5.53174 12.1271C5.58663 12.2169 5.66483 12.2914 5.75861 12.3431C5.85238 12.3948 5.95849 12.4219 6.06644 12.4218C6.11401 12.4218 6.16142 12.4166 6.20777 12.4062L13.9834 10.6695L15.3369 12.8617H6.25474C6.19182 12.8617 6.12967 12.8751 6.07269 12.9009C6.01571 12.9267 5.9653 12.9643 5.92501 13.011C5.88472 13.0577 5.85555 13.1124 5.83955 13.1712C5.82355 13.2301 5.82112 13.2916 5.83243 13.3514L6.3893 16.3008C6.28645 16.2991 6.18362 16.3059 6.08196 16.3211C5.80964 15.9377 5.41521 15.6507 4.95867 15.5039C4.99804 15.4428 5.01976 15.3725 5.02158 15.3005C5.02158 15.1904 4.97633 15.0848 4.8958 15.007C4.81526 14.9291 4.70603 14.8854 4.59214 14.8854C4.47825 14.8854 4.36902 14.9291 4.28848 15.007C4.20795 15.0848 4.1627 15.1904 4.1627 15.3005C4.16494 15.3388 4.17282 15.3765 4.18611 15.4126C3.59734 15.4599 3.0492 15.7219 2.65276 16.1453C2.28571 15.9868 1.87508 15.9487 1.48355 16.0369C1.03543 16.1743 0.647046 16.4514 0.379126 16.8249C0.111206 17.1983 -0.02115 17.6471 0.00275131 18.1009C0.00220521 18.1718 0.0162766 18.242 0.0441425 18.3076C0.0720084 18.3731 0.11311 18.4326 0.165044 18.4826C0.270754 18.5851 0.414165 18.6429 0.56387 18.6434H7.4881C7.62278 18.6435 7.75297 18.5966 7.85464 18.5112C7.95631 18.4258 8.02259 18.3077 8.04125 18.1788C8.09271 17.808 8.02174 17.431 7.83846 17.1015H8.04508C8.14284 17.5418 8.39383 17.9364 8.75617 18.2195C9.11852 18.5025 9.57032 18.6569 10.0362 18.6569C10.5021 18.6569 10.9539 18.5025 11.3162 18.2195C11.6786 17.9364 11.9296 17.5418 12.0273 17.1015H18.6338C18.7315 17.5418 18.9825 17.9364 19.3449 18.2195C19.7072 18.5025 20.159 18.6569 20.6249 18.6569C21.0908 18.6569 21.5426 18.5025 21.9049 18.2195C22.2673 17.9364 22.5182 17.5418 22.616 17.1015H23.0946C23.3313 17.1043 23.5595 17.0163 23.7292 16.8568C23.899 16.6972 23.9963 16.4792 24 16.2503V13.0423C23.9963 12.8135 23.899 12.5954 23.7293 12.4358C23.5595 12.2763 23.3313 12.1883 23.0946 12.1911ZM21.561 12.1924H19.7342V10.5248H20.9403L21.561 12.1924ZM6.18219 11.5597L4.97859 9.6019L14.8011 6.91861C14.9211 6.8859 15.0281 6.81908 15.1082 6.72683C15.1884 6.63459 15.238 6.52117 15.2507 6.40131L15.34 5.56174L15.928 5.42392L16.6224 9.22792L6.18219 11.5597ZM14.8623 10.4732L17.0338 9.98824C17.1113 9.97101 17.1846 9.93957 17.2498 9.89563V12.8617H16.3369L14.8623 10.4732ZM0.889292 17.8131C0.915003 17.5945 1.00411 17.3873 1.14635 17.2155C1.28859 17.0436 1.47817 16.9142 1.69323 16.842C1.83854 16.8165 1.98763 16.8192 2.13189 16.8497C2.27614 16.8803 2.41269 16.9382 2.53363 17.0202C2.62826 17.08 2.74349 17.1013 2.85429 17.0795C2.96508 17.0577 3.06249 16.9945 3.12536 16.9036C3.2795 16.6591 3.5084 16.4669 3.78043 16.3535C4.05246 16.2402 4.35419 16.2113 4.64393 16.2708C4.82818 16.3274 4.99851 16.4198 5.14448 16.5423C5.29044 16.6648 5.40896 16.8149 5.49274 16.9833C5.5398 17.077 5.62155 17.1503 5.72182 17.1885C5.82208 17.2268 5.93355 17.2273 6.03415 17.1899C6.19793 17.1241 6.37849 17.1079 6.55197 17.1435C6.72546 17.179 6.88371 17.2646 7.00583 17.3889C7.11261 17.508 7.17829 17.6563 7.19371 17.8132L0.889292 17.8131ZM10.0362 17.8267C9.80292 17.8267 9.57487 17.7598 9.3809 17.6345C9.18694 17.5092 9.03576 17.3311 8.9465 17.1228C8.85723 16.9144 8.83388 16.6851 8.87939 16.464C8.92491 16.2428 9.03726 16.0396 9.20222 15.8801C9.36718 15.7207 9.57735 15.6121 9.80616 15.5681C10.035 15.5241 10.2721 15.5467 10.4877 15.6329C10.7032 15.7192 10.8874 15.8654 11.0171 16.0529C11.1467 16.2404 11.2159 16.4608 11.2159 16.6863C11.2155 16.9887 11.0911 17.2785 10.87 17.4923C10.6488 17.7061 10.349 17.8263 10.0362 17.8267ZM17.2498 16.2712H12.0273C11.9295 15.8309 11.6785 15.4364 11.3162 15.1533C10.9538 14.8703 10.5021 14.7159 10.0362 14.7159C9.57036 14.7159 9.11859 14.8703 8.75625 15.1533C8.39391 15.4364 8.1429 15.8309 8.04508 16.2712H7.25661L6.76973 13.6919H17.2498V16.2712ZM20.6249 17.8267C20.3916 17.8267 20.1636 17.7598 19.9696 17.6345C19.7756 17.5092 19.6245 17.3311 19.5352 17.1227C19.4459 16.9144 19.4226 16.6851 19.4681 16.464C19.5136 16.2428 19.626 16.0396 19.7909 15.8801C19.9559 15.7207 20.1661 15.6121 20.3949 15.5681C20.6237 15.5241 20.8608 15.5467 21.0764 15.6329C21.2919 15.7192 21.4761 15.8654 21.6058 16.0529C21.7354 16.2404 21.8046 16.4608 21.8046 16.6863C21.8042 16.9887 21.6798 17.2785 21.4587 17.4923C21.2375 17.7061 20.9377 17.8263 20.6249 17.8267ZM23.1411 14.2757H22.6266C22.5872 14.2757 22.5495 14.2606 22.5217 14.2337C22.4939 14.2068 22.4782 14.1703 22.4782 14.1323C22.4782 14.0942 22.4939 14.0578 22.5217 14.0309C22.5495 14.004 22.5872 13.9889 22.6266 13.9889H23.1411V14.2757ZM22.6266 13.1586C22.4943 13.1586 22.3633 13.1838 22.2411 13.2327C22.1189 13.2817 22.0079 13.3534 21.9144 13.4438C21.8208 13.5342 21.7466 13.6415 21.696 13.7597C21.6454 13.8778 21.6193 14.0044 21.6193 14.1323C21.6193 14.2601 21.6454 14.3867 21.696 14.5049C21.7466 14.623 21.8208 14.7303 21.9144 14.8207C22.0079 14.9111 22.1189 14.9829 22.2411 15.0318C22.3633 15.0807 22.4943 15.1059 22.6266 15.1059H23.1411V16.2505C23.136 16.2577 23.129 16.2634 23.1208 16.267C23.1126 16.2707 23.1036 16.2721 23.0946 16.2712H22.616C22.5182 15.8309 22.2672 15.4364 21.9049 15.1533C21.5425 14.8703 21.0908 14.7159 20.6249 14.7159C20.1591 14.7159 19.7073 14.8703 19.345 15.1533C18.9826 15.4364 18.7316 15.8309 18.6338 16.2712H18.1087V9.42455H20.4916C20.5006 9.42386 20.5096 9.42542 20.5178 9.42908C20.5261 9.43273 20.5332 9.43836 20.5385 9.44542L20.6313 9.69454H19.5304C19.3567 9.69473 19.1902 9.76151 19.0674 9.88022C18.9446 9.99893 18.8755 10.1599 18.8753 10.3278V12.3896C18.8755 12.5574 18.9446 12.7183 19.0674 12.837C19.1902 12.9557 19.3567 13.0224 19.5304 13.0226H22.1804V13.0214H23.0946C23.1036 13.0205 23.1126 13.0219 23.1208 13.0256C23.1291 13.0293 23.1361 13.035 23.1411 13.0423V13.1586H22.6266Z" fill="#848484"/>
<path d="M4.95556 13.4001C5.19273 13.4001 5.385 13.2142 5.385 12.9849C5.385 12.7557 5.19273 12.5698 4.95556 12.5698C4.71839 12.5698 4.52612 12.7557 4.52612 12.9849C4.52612 13.2142 4.71839 13.4001 4.95556 13.4001Z" fill="#848484"/>
<path d="M4.09679 14.4767C4.33397 14.4767 4.52623 14.2909 4.52623 14.0616C4.52623 13.8323 4.33397 13.6465 4.09679 13.6465C3.85962 13.6465 3.66736 13.8323 3.66736 14.0616C3.66736 14.2909 3.85962 14.4767 4.09679 14.4767Z" fill="#848484"/>
</g>
<defs>
<clipPath id="clip0_25665_6585">
<rect width="24" height="24" fill="white"/>
</clipPath>
</defs>
</svg>
